<svg width="22" height="23" viewBox="0 0 22 23" fill="none" xmlns="http://www.w3.org/2000/svg">
<path d="M4.92503 22.5008H0.363799V7.81212H4.92503V22.5008ZM2.64167 5.80848C1.18333 5.80848 0 4.6 0 3.14167C0 1.68333 1.18254 0.5 2.64167 0.5C4.10079 0.5 5.28333 1.68254 5.28333 3.14167C5.28333 4.6 4.1 5.80848 2.64167 5.80848ZM21.9961 22.5008H17.4451V15.3505C17.4451 13.6463 17.4105 11.4611 15.0737 11.4611C12.7023 11.4611 12.3385 13.3123 12.3385 15.228V22.5008H7.78199V7.81212H12.1562V9.81576H12.2199C12.8288 8.6615 14.3162 7.4436 16.5352 7.4436C21.1514 7.4436 22 10.4836 22 14.432V22.5008H21.9961Z" fill="#003180"/>
</svg>
