<svg width="22" height="23" viewBox="0 0 22 23" fill="none" xmlns="http://www.w3.org/2000/svg">
<path d="M11 0.5C8.00969 0.5 7.63702 0.514439 6.46675 0.563945C5.29166 0.621703 4.49681 0.803913 3.79547 1.0762C3.07213 1.35948 2.45606 1.73559 1.84754 2.34754C1.2349 2.95606 0.855357 3.57213 0.576197 4.29547C0.303913 4.99681 0.121703 5.79166 0.0639455 6.96675C0.0110014 8.1377 0 8.50969 0 11.5C0 14.4903 0.0144393 14.863 0.0639455 16.0333C0.121703 17.2049 0.303913 18.0032 0.576197 18.7045C0.859482 19.4279 1.23559 20.0439 1.84754 20.6525C2.45606 21.2651 3.07213 21.6446 3.79547 21.9238C4.49681 22.1926 5.2951 22.3783 6.46675 22.4361C7.6377 22.489 8.00969 22.5 11 22.5C13.9903 22.5 14.363 22.4856 15.5333 22.4361C16.7049 22.3783 17.5032 22.192 18.2045 21.9238C18.9279 21.6405 19.5439 21.2644 20.1525 20.6525C20.7651 20.0439 21.1446 19.4313 21.4238 18.7045C21.6926 18.0032 21.8783 17.2049 21.9361 16.0333C21.989 14.8623 22 14.4903 22 11.5C22 8.50969 21.9856 8.13702 21.9361 6.96675C21.8783 5.7951 21.692 4.99269 21.4238 4.29547C21.1405 3.57213 20.7644 2.95606 20.1525 2.34754C19.5439 1.7349 18.9313 1.35536 18.2045 1.0762C17.5032 0.803913 16.7049 0.621703 15.5333 0.563945C14.3623 0.511001 13.9903 0.5 11 0.5ZM11 2.48025C13.9367 2.48025 14.2873 2.49469 15.448 2.54419C16.5186 2.59439 17.1016 2.77316 17.4887 2.92443C18.0051 3.12452 18.3661 3.36105 18.7567 3.74747C19.1396 4.13045 19.3762 4.49556 19.5763 5.01194C19.7275 5.39905 19.9063 5.98212 19.9565 7.05269C20.006 8.21334 20.0204 8.5647 20.0204 11.5007C20.0204 14.4367 20.006 14.788 19.9524 15.9487C19.8946 17.0193 19.7158 17.6023 19.5653 17.9894C19.3569 18.5058 19.1245 18.8668 18.7408 19.2573C18.3537 19.6403 17.9852 19.8769 17.4729 20.0769C17.0906 20.2282 16.4993 20.407 15.4246 20.4572C14.2578 20.5067 13.914 20.5211 10.9697 20.5211C8.0255 20.5211 7.6824 20.5067 6.51419 20.4531C5.44362 20.3953 4.85298 20.2165 4.46587 20.0659C3.94331 19.8576 3.58507 19.6252 3.2014 19.2415C2.81429 18.8544 2.56813 18.4859 2.37836 17.9736C2.22434 17.5913 2.04832 17 1.99125 15.9253C1.95206 14.7722 1.93349 14.4147 1.93349 11.4842C1.93349 8.55507 1.95206 8.19684 1.99125 7.02932C2.04832 5.95462 2.22434 5.36467 2.37836 4.981C2.56813 4.45774 2.81498 4.1002 3.2014 3.71309C3.58439 3.3301 3.94331 3.08257 4.46587 2.88867C4.85298 2.73809 5.42918 2.55932 6.50388 2.50569C7.67071 2.46375 8.0145 2.44862 10.9546 2.44862L11 2.48025ZM11 5.85423C7.87767 5.85423 5.35286 8.38249 5.35286 11.5014C5.35286 14.6237 7.88111 17.1485 11 17.1485C14.1223 17.1485 16.6471 14.6203 16.6471 11.5014C16.6471 8.37905 14.1189 5.85423 11 5.85423ZM11 15.1683C8.973 15.1683 7.3331 13.5284 7.3331 11.5014C7.3331 9.47437 8.973 7.83448 11 7.83448C13.027 7.83448 14.6669 9.47437 14.6669 11.5014C14.6669 13.5284 13.027 15.1683 11 15.1683ZM18.1949 5.6287C18.1949 6.35961 17.6001 6.94956 16.8727 6.94956C16.1418 6.94956 15.5518 6.35892 15.5518 5.6287C15.5518 4.90193 16.1459 4.3106 16.8727 4.3106C17.5994 4.3106 18.1949 4.90193 18.1949 5.6287Z" fill="#003180"/>
</svg>
