<svg width="20" height="21" viewBox="0 0 20 21" fill="none" xmlns="http://www.w3.org/2000/svg">
<path d="M19.4282 2.57826L19.3951 2.55762L15.2186 0.5L10.7107 6.5105L12.7847 9.27597C12.7226 10.3189 12.2803 11.3029 11.5416 12.0416C10.8028 12.7804 9.8188 13.2227 8.77587 13.2847L6.01045 11.2107L0 15.7185L2.04049 19.8602L2.05767 19.8951L2.07836 19.9281C2.18725 20.1036 2.33923 20.2482 2.51984 20.3483C2.70046 20.4484 2.90368 20.5006 3.11018 20.5H4.18787C6.26435 20.5 8.3205 20.091 10.2389 19.2964C12.1573 18.5017 13.9005 17.337 15.3687 15.8687C16.837 14.4004 18.0017 12.6573 18.7964 10.7389C19.591 8.82046 20 6.7643 20 4.68782V3.61008C20.0007 3.40359 19.9485 3.20036 19.8484 3.01975C19.7483 2.83914 19.6036 2.68715 19.4282 2.57826ZM18.4566 4.68782C18.4566 12.5556 12.0556 18.9566 4.18787 18.9566H3.31584L1.95059 16.185L6.01074 13.1399L8.27122 14.8352H8.52845C10.0681 14.8335 11.5441 14.2211 12.6328 13.1325C13.7215 12.0438 14.3338 10.5677 14.3356 9.02811V8.77089L12.6403 6.51046L15.685 2.45054L18.4566 3.81603V4.68782Z" fill="#2B2B2B"/>
</svg>
