<svg width="19" height="18" viewBox="0 0 19 18" fill="none" xmlns="http://www.w3.org/2000/svg">
<path d="M17.9571 16.29L14.5571 12.9C15.6541 11.5025 16.2493 9.77666 16.2471 8C16.2471 6.41775 15.7779 4.87103 14.8988 3.55544C14.0198 2.23985 12.7703 1.21447 11.3085 0.608967C9.84673 0.00346625 8.2382 -0.15496 6.68635 0.153721C5.1345 0.462403 3.70904 1.22433 2.59022 2.34315C1.4714 3.46197 0.709473 4.88743 0.400792 6.43928C0.0921099 7.99113 0.250537 9.59966 0.856038 11.0615C1.46154 12.5233 2.48692 13.7727 3.80251 14.6518C5.1181 15.5308 6.66482 16 8.24707 16C10.0237 16.0022 11.7495 15.407 13.1471 14.31L16.5371 17.71C16.63 17.8037 16.7406 17.8781 16.8625 17.9289C16.9844 17.9797 17.1151 18.0058 17.2471 18.0058C17.3791 18.0058 17.5098 17.9797 17.6316 17.9289C17.7535 17.8781 17.8641 17.8037 17.9571 17.71C18.0508 17.617 18.1252 17.5064 18.176 17.3846C18.2267 17.2627 18.2529 17.132 18.2529 17C18.2529 16.868 18.2267 16.7373 18.176 16.6154C18.1252 16.4936 18.0508 16.383 17.9571 16.29ZM2.24707 8C2.24707 6.81332 2.59897 5.65328 3.25826 4.66658C3.91754 3.67989 4.85462 2.91085 5.95097 2.45673C7.04733 2.0026 8.25373 1.88378 9.41761 2.11529C10.5815 2.3468 11.6506 2.91825 12.4897 3.75736C13.3288 4.59648 13.9003 5.66558 14.1318 6.82946C14.3633 7.99335 14.2445 9.19975 13.7904 10.2961C13.3362 11.3925 12.5672 12.3295 11.5805 12.9888C10.5938 13.6481 9.43376 14 8.24707 14C6.65577 14 5.12965 13.3679 4.00443 12.2426C2.87921 11.1174 2.24707 9.5913 2.24707 8Z" fill="white"/>
</svg>
